# xmcd
#
# Track frame offsets: 
#        150
#        22525
#        45687
#        65655
#        83772
#        96717
#        115832
#        132055
#
# Disc length: 2042 seconds
#
# Revision: 1
# Processed by: cddbd v1.5.2PL0 Copyright (c) Steve Scherf et al.
# Submitted via: ExactAudioCopyFreeDBPlugin 1.0
#
DISCID=6107f808
DTITLE=Bobby Williams - Anybody Can Be A Nobody
DYEAR=1976
DGENRE=Funk
TTITLE0=Anybody Can Be A Nobody (It Takes A Lot Of Heart To Be Somebod
TTITLE0=y)
TTITLE1=You Need Love Like I Do (Don't Fight The Feeling)
TTITLE2=Portrait Of My Stepfather
TTITLE3=These Arms Of Mine
TTITLE4=Think I'd Better Rest
TTITLE5=I Will Sing For You (If You Dance For Me)
TTITLE6=Drop It On Me
TTITLE7=Everybody Needs Love Sometime
EXTD=
EXTT0=
EXTT1=
EXTT2=
EXTT3=
EXTT4=
EXTT5=
EXTT6=
EXTT7=
PLAYORDER=
